<svg xmlns="http://www.w3.org/2000/svg" width="120" height="76" id="payment">
  <g fill="none" fill-rule="evenodd">
    <path fill="#F4F4F4" d="M111.999 0H8C3.582 0 0 3.59 0 8.008v59.984C0 72.415 3.591 76 8.001 76H112c4.419 0 8.001-3.59 8.001-8.008V8.008C120 3.585 116.409 0 111.999 0Z"></path>
    <path fill="#2C97DE" d="M51.578 35.144c-3.013-4.232-7.21-7.939-11.965-10.531a4.942 4.942 0 0 0-2.357-.602 4.981 4.981 0 0 0-4.415 2.689c-1.301 2.477-.382 5.567 2.05 6.894 7.337 3.997 12.07 11.62 12.626 20.431l-.002-.022a5.38 5.38 0 0 1 .518-2.855c.06-.127.13-.263.219-.41a24.936 24.936 0 0 0 3.498-12.772c0-.948-.065-1.888-.172-2.822"></path>
    <path fill="#F2C500" d="M66.223 56.397c2.84-5.849 4.277-12.125 4.277-18.65 0-2.244-.158-3.88-.277-4.916-3.73-5.816-9.14-11.016-15.473-14.823l.157.103c.439.307.808.63 1.193 1.118.094.12.225.289.333.465a34.192 34.192 0 0 1 5.079 20.328c2.705 5.018 4.18 10.722 4.18 16.707 0 .475.01 1.24-.002 1.798a5.814 5.814 0 0 1 .533-2.13"></path>
    <path fill="#1FCE6D" d="M79.638 25.71a54.878 54.878 0 0 0-3.894-11.286 5.544 5.544 0 0 0-4.986-3.169c-.82 0-1.617.182-2.364.54-2.746 1.316-3.915 4.644-2.61 7.4 2.802 5.947 4.186 12.23 4.186 18.756s-1.392 12.802-4.14 18.65c-.04.09-.522 1.125-.522 2.32-.004.337.036.838.141 1.288a5.522 5.522 0 0 0 3.011 3.787 5.448 5.448 0 0 0 2.354.534 5.538 5.538 0 0 0 4.836-2.88c1.1-2.08 2.212-4.811 3.18-8.328A55.489 55.489 0 0 0 81 37.951c0-4.132-.47-8.282-1.362-12.24"></path>
    <path fill="#E94B35" d="M57.174 19.807a5.207 5.207 0 0 0-.328-.466 5.37 5.37 0 0 0-4.215-2.083c-.856 0-1.296.103-1.912.348-.632.25-1.303.591-1.91 1.226a5.556 5.556 0 0 0-1.215 1.94c-.508 1.341-.446 3.105.44 4.518 1.862 2.967 2.958 6.332 3.36 9.798.108.923.174 1.851.174 2.787 0 4.46-1.227 8.822-3.548 12.61-.082.133-.153.27-.222.406a5.208 5.208 0 0 0-.524 2.83 5.277 5.277 0 0 0 2.538 4.037 5.5 5.5 0 0 0 1.221.534c.502.15 1.02.235 1.547.235a5.319 5.319 0 0 0 4.57-2.546 34.613 34.613 0 0 0 5.1-18.106c0-6.383-1.754-12.63-5.076-18.068"></path>
  </g>
</svg>
