<svg xmlns="http://www.w3.org/2000/svg" width="120" height="76" id="payment">
  <g fill="none" fill-rule="evenodd">
    <path fill="#F4F4F4" d="M111.999 0H8C3.582 0 0 3.59 0 8.008v59.984C0 72.415 3.591 76 8.001 76H112c4.419 0 8.001-3.59 8.001-8.008V8.008C120 3.585 116.409 0 111.999 0Z"></path>
    <path fill="#2C97DE" d="M60.314 61.724A31.237 31.237 0 0 0 70.6 38.497a31.225 31.225 0 0 0-10.285-23.22 31.137 31.137 0 0 0-20.987-8.106c-17.312 0-31.32 14.024-31.32 31.326 0 17.309 14.008 31.334 31.32 31.334 8.05 0 15.449-3.073 20.987-8.107"></path>
    <path fill="#4487CA" d="M60.314 61.724A31.237 31.237 0 0 0 70.6 38.497a31.225 31.225 0 0 0-10.285-23.22v46.447Z"></path>
    <path fill="#E94B35" d="M81.348 7.171c-8.097 0-15.496 3.067-21.034 8.107A33.996 33.996 0 0 0 57.15 18.6h6.329a25.842 25.842 0 0 1 2.374 3.315H54.777a39.332 39.332 0 0 0-1.815 3.316h14.705c.511 1.075.93 2.182 1.303 3.32H51.658a26.37 26.37 0 0 0-.93 3.316H69.9c.465 2.138.698 4.359.698 6.631 0 3.48-.559 6.828-1.63 9.952H51.66a27.812 27.812 0 0 0 1.303 3.32h14.705c-.56 1.147-1.117 2.254-1.815 3.317H54.776c.698 1.158 1.536 2.266 2.374 3.316h6.329a34.082 34.082 0 0 1-3.165 3.32 31.195 31.195 0 0 0 21.034 8.109c17.265 0 31.273-14.025 31.273-31.334 0-17.302-14.008-31.327-31.273-31.327"></path>
    <path fill="#231F20" d="M109.316 55.902h.14c.048 0 .093.007.093-.013.047-.025.093-.064.093-.101 0-.04-.047-.077-.093-.096 0-.02-.093-.014-.093-.014h-.14v.224Zm0 .509h-.185v-.891h.372c.092 0 .139 0 .232.045.047.05.093.133.093.223 0 .101-.047.191-.14.228l.14.395h-.233l-.092-.356h-.188v.356h.001Zm.14.325c.42 0 .792-.344.792-.77 0-.428-.373-.771-.792-.771a.753.753 0 0 0-.744.77c0 .427.326.77.744.77Zm-1.024-.77c0-.561.466-1.012 1.024-1.012a1.02 1.02 0 0 1 1.024 1.011c0 .56-.466 1.012-1.024 1.012a1.021 1.021 0 0 1-1.024-1.012ZM34.44 47.216h-3.956l2.326-12.212-5.352 12.212h-3.257l-.652-12.142-2.605 12.142H17.36l3.025-15.882h6.19l.092 9.831 4.282-9.831h6.561l-3.07 15.882M77.95 47.056c-1.07.294-1.908.42-2.791.42-2.001 0-3.072-.999-3.072-2.837 0-.363 0-.75.092-1.16l.232-1.265.187-1.018 1.815-9.864h3.863l-.559 2.965h2.001l-.558 3.137h-2l-1.024 5.39c-.047.241-.047.414-.047.535 0 .668.372.96 1.303.96.465 0 .79-.037 1.07-.12l-.511 2.857M62.5 38.377c0 1.636.885 2.756 2.978 3.602 1.583.65 1.861.84 1.861 1.426 0 .809-.698 1.17-2.279 1.17-1.163 0-2.28-.158-3.537-.515l-.512 2.984.14.026.745.133c.232.038.559.077 1.024.114.93.07 1.675.11 2.186.11 4.142 0 6.05-1.369 6.05-4.315 0-1.77-.79-2.813-2.746-3.596-1.675-.656-1.86-.796-1.86-1.4 0-.7.651-1.056 1.908-1.056.79 0 1.86.076 2.838.197l.559-2.99c-1.024-.14-2.56-.255-3.445-.255-4.42 0-5.956 1.985-5.91 4.365M44.4 41.463a7.161 7.161 0 0 0-.885-.056c-2.187 0-3.304.661-3.304 1.965 0 .802.558 1.318 1.396 1.318 1.582 0 2.746-1.317 2.793-3.227zm2.652 5.753h-3.258l.093-1.342c-1.023 1.062-2.326 1.565-4.095 1.565-2.141 0-3.584-1.438-3.584-3.526 0-3.15 2.513-4.982 6.84-4.982.466 0 1.024.03 1.583.1.14-.425.186-.61.186-.839 0-.859-.698-1.177-2.513-1.177-1.117 0-2.373.14-3.258.362l-.512.134-.373.082.559-2.9c1.954-.498 3.21-.688 4.653-.688 3.35 0 5.119 1.311 5.119 3.793 0 .636-.047 1.12-.326 2.558l-.791 4.581-.14.82-.092.656-.094.452v.351h.003zm10.89-7.967c0-.267.047-.49.047-.656 0-1.05-.698-1.667-1.862-1.667-1.256 0-2.14.827-2.466 2.315l4.281.008zm1.908 7.687c-1.35.357-2.653.528-4.003.521-4.374 0-6.608-1.985-6.608-5.783 0-4.436 2.886-7.7 6.795-7.7 3.21 0 5.258 1.826 5.258 4.695 0 .956-.14 1.877-.512 3.188h-7.725c-.047.197-.047.287-.047.407 0 1.495 1.164 2.259 3.444 2.259 1.396 0 2.653-.248 4.049-.815l-.651 3.228zm37.6-7.12c0-1.35-.557-2.629-2.14-2.629-2 0-3.21 2.355-3.21 4.429 0 1.75.838 2.928 2.235 2.901.837 0 2.652-1.152 2.977-3.163.092-.463.139-.978.139-1.538zm3.957 1.545c-.56 4.295-3.584 6.199-7.586 6.199-4.374 0-6.143-2.673-6.143-5.95 0-4.582 2.979-7.68 7.633-7.68 4.048 0 6.19 2.551 6.19 5.829-.001.795-.001.851-.094 1.602z"></path>
    <path fill="#FFF" d="M102.708 45.23h.14s.047 0 .093-.018c.046-.02.046-.064.046-.102 0-.032 0-.07-.046-.088 0-.02-.094-.02-.14-.02h-.093v.229Zm0 .504h-.186v-.89h.372c.047 0 .14.006.232.05a.33.33 0 0 1 .093.223c0 .096-.047.191-.14.229l.14.389h-.232l-.14-.35h-.139v.349Zm.14.324c.42 0 .745-.344.745-.77a.75.75 0 0 0-.746-.764c-.418 0-.79.343-.79.764 0 .426.372.77.79.77Zm-1.023-.77a1.02 1.02 0 0 1 1.023-1.005 1.02 1.02 0 0 1 1.024 1.005c0 .56-.466 1.011-1.024 1.011a1.02 1.02 0 0 1-1.023-1.011ZM35.417 46.299h-3.91l2.327-12.211-5.352 12.211h-3.537l-.651-12.134-2.327 12.134h-3.536l3.024-15.883h6.096l.279 9.838 4.328-9.838h6.329l-3.07 15.883M78.929 46.147c-1.07.293-1.909.42-2.793.42-2.001 0-3.072-1.005-3.072-2.837 0-.364.046-.75.093-1.158l.232-1.268.186-1.025 1.816-9.863h3.862l-.558 2.966h2.001l-.559 3.143h-2l-1.024 5.39c-.047.236-.047.413-.047.535 0 .669.42.955 1.35.955.418 0 .745-.039 1.023-.122l-.51 2.864"></path>
    <path fill="#231F20" d="m88.933 37.091-.092-.406.791-2.024c-.187-.02-.28-.025-.28-.038-.232-.045-.325-.07-.372-.07a1.552 1.552 0 0 0-.371-.032c-1.303 0-2.188.567-3.398 2.094l.42-2.297h-4.05l-2.373 12.898h3.863c.511-2.96.745-4.644 1.07-6.045.512-2.323 2.234-3.38 3.49-3.144.14.026.233.026.419.096l.232.088.651-1.12"></path>
    <path fill="#FFF" d="M90.283 33.49c-.326-.128-.372-.128-.418-.14-.188-.045-.327-.07-.327-.077a3.07 3.07 0 0 0-.419-.031c-1.256 0-2.186.572-3.397 2.1l.373-1.96h-3.537l-2.374 12.917h3.909c1.396-7.897 2-9.283 3.863-9.283.14 0 .279.012.465.031l.466.095 1.396-3.652m-26.805 3.978c0 1.628.93 2.755 3.025 3.601 1.582.643 1.815.834 1.815 1.426 0 .801-.698 1.164-2.234 1.164-1.21 0-2.28-.16-3.537-.51l-.558 2.98.186.03.698.127c.232.046.606.083 1.07.116.93.07 1.629.107 2.141.107 4.188 0 6.096-1.362 6.096-4.308 0-1.775-.79-2.812-2.792-3.595-1.629-.656-1.816-.802-1.816-1.407 0-.694.652-1.05 1.908-1.05.79 0 1.815.07 2.839.191l.558-2.99c-1.024-.14-2.559-.255-3.49-.255-4.373 0-5.91 1.986-5.91 4.373m-18.24 3.079a7.154 7.154 0 0 0-.885-.05c-2.187 0-3.304.66-3.304 1.965 0 .802.512 1.317 1.396 1.317 1.582 0 2.7-1.323 2.793-3.232zm2.837 5.752h-3.257l.093-1.336c-.977 1.062-2.326 1.559-4.096 1.559-2.094 0-3.537-1.439-3.537-3.526 0-3.144 2.514-4.982 6.84-4.982.42 0 .978.037 1.583.101.093-.426.139-.604.139-.84 0-.852-.698-1.17-2.513-1.17-1.117 0-2.374.133-3.211.356l-.559.14-.325.084.512-2.909c1.954-.496 3.21-.68 4.653-.68 3.35 0 5.12 1.31 5.12 3.786 0 .636-.047 1.12-.28 2.558l-.838 4.588-.139.82-.093.656-.047.445-.045.35zm10.704-7.96v-.662c0-1.05-.651-1.661-1.815-1.661-1.256 0-2.14.82-2.513 2.316l4.328.007zm2.048 7.687c-1.303.35-2.606.522-3.956.522-4.374 0-6.655-1.986-6.655-5.79 0-4.43 2.885-7.694 6.794-7.694 3.211 0 5.258 1.826 5.258 4.69 0 .954-.14 1.883-.466 3.193h-7.724c-.047.198-.047.287-.047.407 0 1.496 1.163 2.26 3.397 2.26 1.396 0 2.653-.255 4.048-.821l-.649 3.233zM98.38 38.79c0-1.35-.558-2.628-2.14-2.628-2 0-3.21 2.354-3.21 4.429 0 1.756.838 2.934 2.234 2.908.838 0 2.652-1.152 2.978-3.163.092-.471.138-.986.138-1.546zm4.05 1.655c-.606 4.295-3.585 6.203-7.586 6.203-4.421 0-6.19-2.679-6.19-5.956 0-4.575 3.025-7.68 7.68-7.68 4.047 0 6.189 2.552 6.189 5.829 0 .801 0 .853-.094 1.604z"></path>
  </g>
</svg>
