<svg xmlns="http://www.w3.org/2000/svg" width="120" height="76" id="payment">
  <g fill="none" fill-rule="evenodd">
    <path fill="#227FBB" d="M111.999 0H8C3.582 0 0 3.59 0 8.008v59.984C0 72.415 3.591 76 8.001 76H112c4.419 0 8.001-3.59 8.001-8.008V8.008C120 3.585 116.409 0 111.999 0Z"></path>
    <path fill="#FFF" d="M5 24.039h2.858l4.457 17.278h.057l4.773-17.278h3.143l4.772 17.278h.057l4.458-17.278h2.857l-5.886 21.613H23.66l-4.915-17.644h-.057L13.8 45.652h-2.886L5 24.039Zm25.747 14.838c0-.992.185-1.916.557-2.774a7.134 7.134 0 0 1 3.815-3.788 7.17 7.17 0 0 1 2.829-.557 7.17 7.17 0 0 1 5.115 2.087 7.225 7.225 0 0 1 1.528 2.258c.372.858.558 1.782.558 2.774 0 .99-.186 1.92-.558 2.787a7.012 7.012 0 0 1-1.528 2.258 7.255 7.255 0 0 1-5.115 2.073 7.255 7.255 0 0 1-5.115-2.073 7.012 7.012 0 0 1-1.529-2.258 7.003 7.003 0 0 1-.557-2.787s0 .99 0 0Zm2.743 0c0 .686.105 1.32.314 1.9.21.582.505 1.077.886 1.487a4.1 4.1 0 0 0 1.4.972c.553.239 1.172.358 1.858.358.686 0 1.305-.12 1.857-.358a4.1 4.1 0 0 0 1.4-.972c.381-.41.677-.905.886-1.486.21-.582.314-1.215.314-1.901 0-.687-.104-1.32-.314-1.902a4.287 4.287 0 0 0-.886-1.486 4.1 4.1 0 0 0-1.4-.972c-.552-.238-1.171-.358-1.857-.358-.686 0-1.305.12-1.858.358a4.1 4.1 0 0 0-1.4.972c-.38.41-.676.905-.886 1.486a5.567 5.567 0 0 0-.314 1.902s0-.687 0 0ZM46.128 32.1h2.571v2.087h.058c.171-.362.4-.69.685-.986.286-.296.605-.548.958-.758.352-.21.738-.376 1.157-.5.42-.124.838-.186 1.257-.186.42 0 .8.057 1.143.171l-.114 2.774a7.458 7.458 0 0 0-.629-.143 3.506 3.506 0 0 0-.628-.058c-1.258 0-2.22.353-2.886 1.058-.667.705-1 1.801-1 3.288v6.804h-2.572V32.101Zm11.844-8.062v21.613h-2.571V24.039h2.571ZM71.56 45.993v-2.285h-.057c-.495.724-1.176 1.286-2.043 1.687-.867.4-1.758.6-2.672.6-1.048 0-1.995-.181-2.843-.543a6.283 6.283 0 0 1-2.172-1.515 6.846 6.846 0 0 1-1.386-2.259c-.324-.857-.486-1.791-.486-2.801 0-1.01.162-1.95.486-2.816a6.657 6.657 0 0 1 1.386-2.259 6.378 6.378 0 0 1 2.172-1.5c.848-.363 1.795-.544 2.843-.544a6.28 6.28 0 0 1 2.743.615c.858.41 1.515.967 1.972 1.672h.057V24.039h2.572v21.954H71.56Zm-4.458-2.4c.686 0 1.305-.118 1.858-.357a4.1 4.1 0 0 0 1.4-.972c.381-.41.676-.905.886-1.486.21-.582.314-1.215.314-1.901 0-.687-.105-1.32-.314-1.902a4.287 4.287 0 0 0-.886-1.486 4.1 4.1 0 0 0-1.4-.972c-.553-.238-1.172-.358-1.858-.358-.685 0-1.305.12-1.857.358a4.1 4.1 0 0 0-1.4.972c-.381.41-.676.905-.886 1.486a5.567 5.567 0 0 0-.314 1.902c0 .686.104 1.32.314 1.9.21.582.505 1.077.886 1.487a4.1 4.1 0 0 0 1.4.972c.552.239 1.172.358 1.857.358 0 0-.685 0 0 0ZM83.541 24c1.295 0 2.362.176 3.2.529.838.352 1.5.8 1.986 1.344a4.578 4.578 0 0 1 1.014 1.83c.191.676.286 1.329.286 1.958s-.095 1.281-.286 1.958a4.578 4.578 0 0 1-1.014 1.83c-.486.543-1.148.99-1.986 1.343-.838.353-1.905.53-3.2.53h-4.372v10.67h-2.744V24h7.116Zm-4.372 8.83h3.6a9.8 9.8 0 0 0 1.586-.128 4.26 4.26 0 0 0 1.4-.472 2.58 2.58 0 0 0 .986-.986c.248-.43.372-.987.372-1.673s-.124-1.243-.372-1.672a2.58 2.58 0 0 0-.986-.987 4.26 4.26 0 0 0-1.4-.471 9.8 9.8 0 0 0-1.586-.129h-3.6v6.518Zm13.116-.572a8.598 8.598 0 0 1 2.858-.5c.99 0 1.843.124 2.557.372.714.247 1.3.58 1.757 1 .458.42.796.9 1.015 1.444.219.543.329 1.11.329 1.701v6.918c0 .477.01.915.028 1.315.02.4.048 1.123.086 1.485h-2.286a33.645 33.645 0 0 1-.086-2.4h-.057c-.572.877-1.248 1.497-2.029 1.859-.781.362-1.686.543-2.715.543a6.229 6.229 0 0 1-1.8-.257 4.393 4.393 0 0 1-1.5-.772 3.685 3.685 0 0 1-1.014-1.272c-.248-.505-.372-1.091-.372-1.758 0-.877.195-1.611.586-2.202.39-.59.924-1.072 1.6-1.444.676-.371 1.467-.638 2.372-.8a16.458 16.458 0 0 1 2.9-.243H98.4v-.572c0-.343-.066-.686-.2-1.029a2.779 2.779 0 0 0-1.6-1.587c-.4-.162-.876-.243-1.429-.243-.495 0-.929.048-1.3.143-.371.096-.71.215-1.014.358-.305.143-.581.31-.83.5-.247.19-.485.372-.713.543l-1.544-1.6a7.159 7.159 0 0 1 2.515-1.502Zm5.494 6.876c-.61 0-1.234.033-1.872.1a7.312 7.312 0 0 0-1.743.386c-.524.19-.953.457-1.286.8-.333.343-.5.782-.5 1.315 0 .782.262 1.344.786 1.687.524.343 1.233.515 2.129.515.704 0 1.304-.12 1.8-.358a3.384 3.384 0 0 0 1.2-.929c.305-.381.524-.805.657-1.272.134-.467.2-.93.2-1.387v-.857H97.78Zm3.636-7.033h2.972l4.029 10.578h.057l3.83-10.578h2.771l-6.43 16.467c-.228.59-.466 1.13-.714 1.615-.247.486-.543.9-.886 1.244-.342.343-.757.61-1.243.8-.485.191-1.08.286-1.786.286a9.55 9.55 0 0 1-1.157-.071 4.206 4.206 0 0 1-1.129-.3l.315-2.345c.514.21 1.028.315 1.543.315.4 0 .738-.053 1.014-.157a2 2 0 0 0 .715-.458c.2-.2.366-.433.5-.7.133-.267.266-.572.4-.915l.828-2.144-5.629-13.637Z"></path>
  </g>
</svg>
