<svg xmlns="http://www.w3.org/2000/svg" width="120" height="76" id="payment">
  <g fill="none" fill-rule="evenodd">
    <path fill="#9C56B8" d="M111.999 0H8C3.582 0 0 3.59 0 8.008v59.984C0 72.415 3.591 76 8.001 76H112c4.419 0 8.001-3.59 8.001-8.008V8.008C120 3.585 116.409 0 111.999 0Z"></path>
    <g transform="translate(36 7)">
      <circle cx="24.5" cy="24.5" r="24.5" fill="#FFF"></circle>
      <circle cx="24.5" cy="24.5" r="23.03" fill="#9C56B8"></circle>
      <path fill="#000" d="M35.934 13.066c-4.401-4.401-11.615-4.324-16.112.173-4.496 4.497-4.574 11.71-.173 16.112l2.426-2.426c-3.062-3.061-2.985-8.103.173-11.26 3.157-3.158 8.199-3.235 11.26-.174l2.426-2.425Z"></path>
      <path fill="#FFF" d="M29.35 19.65c4.402 4.4 4.324 11.614-.172 16.11-4.497 4.498-11.71 4.575-16.112.174l2.425-2.425c3.062 3.061 8.104 2.984 11.261-.174 3.158-3.157 3.235-8.199.173-11.26l2.426-2.426ZM12.142 58.703c-.025.525.104.896.39 1.111.284.215.674.323 1.168.323.158 0 .328-.019.508-.057.18-.038.344-.1.49-.185.145-.086.267-.197.365-.333a.846.846 0 0 0 .147-.508.788.788 0 0 0-.137-.475 1.138 1.138 0 0 0-.361-.318 2.52 2.52 0 0 0-.518-.219c-.196-.06-.4-.118-.608-.175a9.128 9.128 0 0 1-.542-.157 2.444 2.444 0 0 1-.608-.295c-.196-.13-.362-.299-.498-.508-.137-.209-.205-.475-.205-.798 0-.304.057-.586.171-.846.114-.26.279-.482.494-.67.216-.186.48-.332.794-.436.313-.105.67-.157 1.068-.157.355 0 .688.038.998.114.31.076.58.2.807.37.228.172.406.395.532.67.127.276.184.613.171 1.012h-1.14c-.006-.424-.123-.73-.351-.917-.228-.187-.573-.28-1.036-.28-.082 0-.196.01-.342.029a1.443 1.443 0 0 0-.437.133c-.145.07-.272.169-.38.299-.107.13-.161.308-.161.537 0 .164.038.3.114.408a.97.97 0 0 0 .309.276c.13.076.28.139.45.19.172.05.352.098.542.142.241.063.483.133.727.209.244.076.466.182.665.318.2.136.361.315.485.537.123.222.185.51.185.864 0 .267-.05.53-.152.789a1.9 1.9 0 0 1-.49.703 2.536 2.536 0 0 1-.873.508c-.358.13-.794.195-1.307.195-.399 0-.76-.046-1.083-.138a2.139 2.139 0 0 1-.821-.427 1.83 1.83 0 0 1-.513-.746c-.118-.304-.17-.668-.157-1.093h1.14Zm6.374-.599c0 .633.162 1.13.485 1.492.323.36.782.541 1.377.541.393 0 .737-.092 1.031-.276a2.44 2.44 0 0 0 .741-.721c.2-.298.348-.634.447-1.008.098-.373.147-.75.147-1.13 0-.633-.154-1.13-.46-1.492-.308-.36-.76-.541-1.355-.541-.405 0-.758.092-1.059.276a2.4 2.4 0 0 0-.75.722c-.2.297-.35.633-.452 1.007-.101.373-.152.75-.152 1.13Zm-1.187.038c0-.71.106-1.325.318-1.848.212-.522.49-.953.836-1.292.345-.339.735-.59 1.169-.755A3.682 3.682 0 0 1 20.967 54c.444 0 .849.073 1.216.218a2.656 2.656 0 0 1 1.535 1.549c.142.361.213.76.213 1.197 0 .716-.101 1.333-.304 1.852-.202.52-.471.949-.807 1.288-.336.339-.719.59-1.15.755-.43.165-.874.247-1.33.247-.487 0-.918-.076-1.292-.228a2.664 2.664 0 0 1-.94-.627 2.7 2.7 0 0 1-.58-.94c-.133-.362-.2-.751-.2-1.169Zm8.36-3.98h1.187l-1.197 5.757h3.42l-.209 1.026h-4.607l1.406-6.784Zm5.49 3.942c0 .633.162 1.13.485 1.492.323.36.783.541 1.378.541.393 0 .736-.092 1.03-.276a2.44 2.44 0 0 0 .742-.721c.2-.298.348-.634.446-1.008.098-.373.147-.75.147-1.13 0-.633-.153-1.13-.46-1.492-.308-.36-.759-.541-1.354-.541-.405 0-.759.092-1.06.276a2.4 2.4 0 0 0-.75.722c-.2.297-.35.633-.451 1.007-.101.373-.152.75-.152 1.13Zm-1.187.038c0-.71.106-1.325.319-1.848.212-.522.49-.953.836-1.292.345-.339.734-.59 1.168-.755A3.682 3.682 0 0 1 33.631 54c.443 0 .849.073 1.216.218a2.656 2.656 0 0 1 1.534 1.549c.143.361.214.76.214 1.197 0 .716-.101 1.333-.304 1.852-.203.52-.472.949-.808 1.288-.335.339-.718.59-1.15.755-.43.165-.873.247-1.33.247-.487 0-.917-.076-1.291-.228a2.664 2.664 0 0 1-.94-.627 2.7 2.7 0 0 1-.58-.94c-.133-.362-.2-.751-.2-1.169Z"></path>
    </g>
  </g>
</svg>
